<svg id="visual" viewBox="0 0 900 600" width="900" height="600" xmlns="http://www.w3.org/2000/svg" xmlns:xlink="http://www.w3.org/1999/xlink" version="1.1"><rect x="0" y="0" width="900" height="600" fill="#001220"></rect><path d="M0 384L21.5 382.2C43 380.3 86 376.7 128.8 385.8C171.7 395 214.3 417 257.2 417.3C300 417.7 343 396.3 385.8 388.5C428.7 380.7 471.3 386.3 514.2 385.3C557 384.3 600 376.7 642.8 375.7C685.7 374.7 728.3 380.3 771.2 390.3C814 400.3 857 414.7 878.5 421.8L900 429L900 601L878.5 601C857 601 814 601 771.2 601C728.3 601 685.7 601 642.8 601C600 601 557 601 514.2 601C471.3 601 428.7 601 385.8 601C343 601 300 601 257.2 601C214.3 601 171.7 601 128.8 601C86 601 43 601 21.5 601L0 601Z" fill="#c62368"></path><path d="M0 447L21.5 447.3C43 447.7 86 448.3 128.8 442C171.7 435.7 214.3 422.3 257.2 420C300 417.7 343 426.3 385.8 424.2C428.7 422 471.3 409 514.2 409.8C557 410.7 600 425.3 642.8 431.3C685.7 437.3 728.3 434.7 771.2 435.7C814 436.7 857 441.3 878.5 443.7L900 446L900 601L878.5 601C857 601 814 601 771.2 601C728.3 601 685.7 601 642.8 601C600 601 557 601 514.2 601C471.3 601 428.7 601 385.8 601C343 601 300 601 257.2 601C214.3 601 171.7 601 128.8 601C86 601 43 601 21.5 601L0 601Z" fill="#b71a57"></path><path d="M0 458L21.5 460.5C43 463 86 468 128.8 473C171.7 478 214.3 483 257.2 478.2C300 473.3 343 458.7 385.8 455C428.7 451.3 471.3 458.7 514.2 467.7C557 476.7 600 487.3 642.8 487.2C685.7 487 728.3 476 771.2 478C814 480 857 495 878.5 502.5L900 510L900 601L878.5 601C857 601 814 601 771.2 601C728.3 601 685.7 601 642.8 601C600 601 557 601 514.2 601C471.3 601 428.7 601 385.8 601C343 601 300 601 257.2 601C214.3 601 171.7 601 128.8 601C86 601 43 601 21.5 601L0 601Z" fill="#a71247"></path><path d="M0 501L21.5 503.3C43 505.7 86 510.3 128.8 508.2C171.7 506 214.3 497 257.2 491.8C300 486.7 343 485.3 385.8 494.2C428.7 503 471.3 522 514.2 523.5C557 525 600 509 642.8 499.5C685.7 490 728.3 487 771.2 492.5C814 498 857 512 878.5 519L900 526L900 601L878.5 601C857 601 814 601 771.2 601C728.3 601 685.7 601 642.8 601C600 601 557 601 514.2 601C471.3 601 428.7 601 385.8 601C343 601 300 601 257.2 601C214.3 601 171.7 601 128.8 601C86 601 43 601 21.5 601L0 601Z" fill="#970a38"></path><path d="M0 525L21.5 526.2C43 527.3 86 529.7 128.8 531.8C171.7 534 214.3 536 257.2 535.7C300 535.3 343 532.7 385.8 538C428.7 543.3 471.3 556.7 514.2 563.8C557 571 600 572 642.8 568.8C685.7 565.7 728.3 558.3 771.2 557.2C814 556 857 561 878.5 563.5L900 566L900 601L878.5 601C857 601 814 601 771.2 601C728.3 601 685.7 601 642.8 601C600 601 557 601 514.2 601C471.3 601 428.7 601 385.8 601C343 601 300 601 257.2 601C214.3 601 171.7 601 128.8 601C86 601 43 601 21.5 601L0 601Z" fill="#87032b"></path></svg>