<svg id="visual" viewBox="0 0 900 600" width="900" height="600" xmlns="http://www.w3.org/2000/svg" xmlns:xlink="http://www.w3.org/1999/xlink" version="1.1"><rect x="0" y="0" width="900" height="600" fill="#001220"></rect><path d="M0 394L100 394L100 320L200 320L200 412L300 412L300 374L400 374L400 315L500 315L500 312L600 312L600 343L700 343L700 381L800 381L800 369L900 369L900 375L900 601L900 601L800 601L800 601L700 601L700 601L600 601L600 601L500 601L500 601L400 601L400 601L300 601L300 601L200 601L200 601L100 601L100 601L0 601Z" fill="#04ff8d"></path><path d="M0 428L100 428L100 455L200 455L200 431L300 431L300 441L400 441L400 403L500 403L500 445L600 445L600 426L700 426L700 457L800 457L800 434L900 434L900 453L900 601L900 601L800 601L800 601L700 601L700 601L600 601L600 601L500 601L500 601L400 601L400 601L300 601L300 601L200 601L200 601L100 601L100 601L0 601Z" fill="#31b847"></path><path d="M0 492L100 492L100 481L200 481L200 543L300 543L300 528L400 528L400 496L500 496L500 521L600 521L600 536L700 536L700 470L800 470L800 536L900 536L900 481L900 601L900 601L800 601L800 601L700 601L700 601L600 601L600 601L500 601L500 601L400 601L400 601L300 601L300 601L200 601L200 601L100 601L100 601L0 601Z" fill="#277600"></path></svg>