<svg id="visual" viewBox="0 0 900 600" width="900" height="600" xmlns="http://www.w3.org/2000/svg" xmlns:xlink="http://www.w3.org/1999/xlink" version="1.1"><rect x="0" y="0" width="900" height="600" fill="#001220"></rect><defs><linearGradient id="grad1_0" x1="33.3%" y1="0%" x2="100%" y2="100%"><stop offset="20%" stop-color="#9a04ae" stop-opacity="1"></stop><stop offset="80%" stop-color="#9a04ae" stop-opacity="1"></stop></linearGradient></defs><defs><linearGradient id="grad1_1" x1="33.3%" y1="0%" x2="100%" y2="100%"><stop offset="20%" stop-color="#9a04ae" stop-opacity="1"></stop><stop offset="80%" stop-color="#7126a5" stop-opacity="1"></stop></linearGradient></defs><defs><linearGradient id="grad1_2" x1="33.3%" y1="0%" x2="100%" y2="100%"><stop offset="20%" stop-color="#4a2e96" stop-opacity="1"></stop><stop offset="80%" stop-color="#7126a5" stop-opacity="1"></stop></linearGradient></defs><defs><linearGradient id="grad1_3" x1="33.3%" y1="0%" x2="100%" y2="100%"><stop offset="20%" stop-color="#4a2e96" stop-opacity="1"></stop><stop offset="80%" stop-color="#242f82" stop-opacity="1"></stop></linearGradient></defs><defs><linearGradient id="grad1_4" x1="33.3%" y1="0%" x2="100%" y2="100%"><stop offset="20%" stop-color="#002b6b" stop-opacity="1"></stop><stop offset="80%" stop-color="#242f82" stop-opacity="1"></stop></linearGradient></defs><defs><linearGradient id="grad1_5" x1="33.3%" y1="0%" x2="100%" y2="100%"><stop offset="20%" stop-color="#002b6b" stop-opacity="1"></stop><stop offset="80%" stop-color="#002452" stop-opacity="1"></stop></linearGradient></defs><defs><linearGradient id="grad1_6" x1="33.3%" y1="0%" x2="100%" y2="100%"><stop offset="20%" stop-color="#001c39" stop-opacity="1"></stop><stop offset="80%" stop-color="#002452" stop-opacity="1"></stop></linearGradient></defs><defs><linearGradient id="grad1_7" x1="33.3%" y1="0%" x2="100%" y2="100%"><stop offset="20%" stop-color="#001c39" stop-opacity="1"></stop><stop offset="80%" stop-color="#001220" stop-opacity="1"></stop></linearGradient></defs><defs><linearGradient id="grad2_0" x1="0%" y1="0%" x2="66.7%" y2="100%"><stop offset="20%" stop-color="#9a04ae" stop-opacity="1"></stop><stop offset="80%" stop-color="#9a04ae" stop-opacity="1"></stop></linearGradient></defs><defs><linearGradient id="grad2_1" x1="0%" y1="0%" x2="66.7%" y2="100%"><stop offset="20%" stop-color="#7126a5" stop-opacity="1"></stop><stop offset="80%" stop-color="#9a04ae" stop-opacity="1"></stop></linearGradient></defs><defs><linearGradient id="grad2_2" x1="0%" y1="0%" x2="66.7%" y2="100%"><stop offset="20%" stop-color="#7126a5" stop-opacity="1"></stop><stop offset="80%" stop-color="#4a2e96" stop-opacity="1"></stop></linearGradient></defs><defs><linearGradient id="grad2_3" x1="0%" y1="0%" x2="66.7%" y2="100%"><stop offset="20%" stop-color="#242f82" stop-opacity="1"></stop><stop offset="80%" stop-color="#4a2e96" stop-opacity="1"></stop></linearGradient></defs><defs><linearGradient id="grad2_4" x1="0%" y1="0%" x2="66.7%" y2="100%"><stop offset="20%" stop-color="#242f82" stop-opacity="1"></stop><stop offset="80%" stop-color="#002b6b" stop-opacity="1"></stop></linearGradient></defs><defs><linearGradient id="grad2_5" x1="0%" y1="0%" x2="66.7%" y2="100%"><stop offset="20%" stop-color="#002452" stop-opacity="1"></stop><stop offset="80%" stop-color="#002b6b" stop-opacity="1"></stop></linearGradient></defs><defs><linearGradient id="grad2_6" x1="0%" y1="0%" x2="66.7%" y2="100%"><stop offset="20%" stop-color="#002452" stop-opacity="1"></stop><stop offset="80%" stop-color="#001c39" stop-opacity="1"></stop></linearGradient></defs><defs><linearGradient id="grad2_7" x1="0%" y1="0%" x2="66.7%" y2="100%"><stop offset="20%" stop-color="#001220" stop-opacity="1"></stop><stop offset="80%" stop-color="#001c39" stop-opacity="1"></stop></linearGradient></defs><g transform="translate(900, 0)"><path d="M0 432.7C-43.1 423.5 -86.2 414.4 -131 403.2C-175.8 392.1 -222.4 378.9 -254.3 350C-286.2 321.2 -303.5 276.7 -329.3 239.2C-355.1 201.7 -389.4 171.3 -408 132.6C-426.7 93.9 -429.7 46.9 -432.7 0L0 0Z" fill="#00172c"></path><path d="M0 378.6C-37.7 370.6 -75.4 362.6 -114.6 352.8C-153.9 343.1 -194.6 331.5 -222.5 306.3C-250.4 281 -265.6 242.1 -288.1 209.3C-310.7 176.5 -340.7 149.9 -357 116C-373.3 82.1 -376 41.1 -378.6 0L0 0Z" fill="#002045"></path><path d="M0 324.5C-32.3 317.7 -64.6 310.8 -98.3 302.4C-131.9 294.1 -166.8 284.2 -190.7 262.5C-214.7 240.9 -227.6 207.5 -247 179.4C-266.3 151.3 -292 128.5 -306 99.4C-320 70.4 -322.2 35.2 -324.5 0L0 0Z" fill="#00285f"></path><path d="M0 270.4C-26.9 264.7 -53.9 259 -81.9 252C-109.9 245.1 -139 236.8 -158.9 218.8C-178.9 200.7 -189.7 172.9 -205.8 149.5C-221.9 126.1 -243.3 107 -255 82.9C-266.7 58.7 -268.5 29.3 -270.4 0L0 0Z" fill="#0f2d77"></path><path d="M0 216.3C-21.5 211.8 -43.1 207.2 -65.5 201.6C-87.9 196 -111.2 189.4 -127.2 175C-143.1 160.6 -151.7 138.4 -164.6 119.6C-177.5 100.9 -194.7 85.6 -204 66.3C-213.3 46.9 -214.8 23.5 -216.3 0L0 0Z" fill="#372f8d"></path><path d="M0 162.2C-16.2 158.8 -32.3 155.4 -49.1 151.2C-65.9 147 -83.4 142.1 -95.4 131.3C-107.3 120.4 -113.8 103.8 -123.5 89.7C-133.1 75.7 -146 64.2 -153 49.7C-160 35.2 -161.1 17.6 -162.2 0L0 0Z" fill="#5d2b9e"></path><path d="M0 108.2C-10.8 105.9 -21.5 103.6 -32.8 100.8C-44 98 -55.6 94.7 -63.6 87.5C-71.6 80.3 -75.9 69.2 -82.3 59.8C-88.8 50.4 -97.3 42.8 -102 33.1C-106.7 23.5 -107.4 11.7 -108.2 0L0 0Z" fill="#851caa"></path><path d="M0 54.1C-5.4 52.9 -10.8 51.8 -16.4 50.4C-22 49 -27.8 47.4 -31.8 43.8C-35.8 40.1 -37.9 34.6 -41.2 29.9C-44.4 25.2 -48.7 21.4 -51 16.6C-53.3 11.7 -53.7 5.9 -54.1 0L0 0Z" fill="#9a04ae"></path></g><g transform="translate(0, 600)"><path d="M0 -432.7C42.4 -419.8 84.7 -407 127.9 -393.7C171.2 -380.5 215.3 -366.9 246.9 -339.8C278.5 -312.7 297.6 -272 326 -236.9C354.5 -201.8 392.2 -172.3 411.5 -133.7C430.8 -95.2 431.7 -47.6 432.7 0L0 0Z" fill="#00172c"></path><path d="M0 -378.6C37.1 -367.3 74.1 -356.1 111.9 -344.5C149.8 -333 188.3 -321.1 216 -297.3C243.7 -273.6 260.4 -238 285.3 -207.3C310.1 -176.6 343.1 -150.7 360.1 -117C377 -83.3 377.8 -41.6 378.6 0L0 0Z" fill="#002045"></path><path d="M0 -324.5C31.8 -314.9 63.5 -305.2 95.9 -295.3C128.4 -285.4 161.4 -275.2 185.2 -254.8C208.9 -234.5 223.2 -204 244.5 -177.7C265.8 -151.3 294.1 -129.2 308.6 -100.3C323.1 -71.4 323.8 -35.7 324.5 0L0 0Z" fill="#00285f"></path><path d="M0 -270.4C26.5 -262.4 52.9 -254.4 80 -246.1C107 -237.8 134.5 -229.3 154.3 -212.4C174.1 -195.4 186 -170 203.8 -148C221.5 -126.1 245.1 -107.7 257.2 -83.6C269.3 -59.5 269.8 -29.7 270.4 0L0 0Z" fill="#0f2d77"></path><path d="M0 -216.3C21.2 -209.9 42.4 -203.5 64 -196.9C85.6 -190.3 107.6 -183.5 123.4 -169.9C139.2 -156.3 148.8 -136 163 -118.4C177.2 -100.9 196.1 -86.1 205.7 -66.9C215.4 -47.6 215.9 -23.8 216.3 0L0 0Z" fill="#372f8d"></path><path d="M0 -162.2C15.9 -157.4 31.8 -152.6 48 -147.7C64.2 -142.7 80.7 -137.6 92.6 -127.4C104.4 -117.2 111.6 -102 122.3 -88.8C132.9 -75.7 147.1 -64.6 154.3 -50.1C161.6 -35.7 161.9 -17.8 162.2 0L0 0Z" fill="#5d2b9e"></path><path d="M0 -108.2C10.6 -105 21.2 -101.7 32 -98.4C42.8 -95.1 53.8 -91.7 61.7 -84.9C69.6 -78.2 74.4 -68 81.5 -59.2C88.6 -50.4 98 -43.1 102.9 -33.4C107.7 -23.8 107.9 -11.9 108.2 0L0 0Z" fill="#851caa"></path><path d="M0 -54.1C5.3 -52.5 10.6 -50.9 16 -49.2C21.4 -47.6 26.9 -45.9 30.9 -42.5C34.8 -39.1 37.2 -34 40.8 -29.6C44.3 -25.2 49 -21.5 51.4 -16.7C53.9 -11.9 54 -5.9 54.1 0L0 0Z" fill="#9a04ae"></path></g></svg>